<svg xmlns="http://www.w3.org/2000/svg" viewBox="0 0 221.65 62.1"><defs><style>.cls-1,.cls-2{fill:#fff;}.cls-1{fill-rule:evenodd;}</style></defs><title>资源 1</title><g id="图层_2" data-name="图层 2"><g id="图层_1-2" data-name="图层 1"><path class="cls-1" d="M0,62.1H15.82V25.84c4.38,6.8,8.7,13.67,12.82,20.63h16l21.2-34.69,39.29,0V0H57.28c-.19.7-8.25,13.53-9,14.82-.42.69-.84,1.32-1.31,2.1L36.45,33.65,15.42,0H0Z"/><polygon class="cls-1" points="117.37 62.1 133.19 62.1 133.19 28.85 151.62 62.1 167.24 62.1 150.42 31.05 168.04 0 152.22 0 142.81 16.83 132.79 0 117.37 0 117.37 62.1"/><polygon class="cls-1" points="57.28 32.85 57.28 62.1 105.15 62.1 105.15 50.28 73.11 50.28 73.11 37.06 105.15 37.06 105.15 25.04 73.11 25.04 73.11 14.62 68.1 14.62 57.28 32.85"/><rect class="cls-2" x="206.7" y="24.64" width="13.02" height="37.46"/><polygon class="cls-1" points="172.65 34.46 196.49 34.46 190.48 24.44 167.1 24.44 172.65 34.46"/><path class="cls-1" d="M213.19,15.52c4.66,0,8.47-3.49,8.47-7.76S217.85,0,213.19,0s-8.47,3.49-8.47,7.76S208.52,15.52,213.19,15.52Z"/></g></g></svg>